<svg width="303" height="154" viewBox="0 0 303 154" fill="none" xmlns="http://www.w3.org/2000/svg">
<path d="M25.728 88.2C32.256 88.2 37.4187 89.8427 41.216 93.128C45.0133 96.3707 46.912 101.021 46.912 107.08H33.408C33.408 104.52 32.7253 102.493 31.36 101C30.0373 99.5067 28.1387 98.76 25.664 98.76C22.8053 98.76 20.6933 99.656 19.328 101.448C18.0053 103.24 17.344 105.736 17.344 108.936V113.032C17.344 116.189 18.0053 118.685 19.328 120.52C20.6933 122.312 22.7627 123.208 25.536 123.208C28.2667 123.208 30.336 122.504 31.744 121.096C33.152 119.688 33.856 117.704 33.856 115.144H46.912C46.912 121.16 45.056 125.768 41.344 128.968C37.6747 132.168 32.4693 133.768 25.728 133.768C18.2187 133.768 12.5227 131.848 8.64 128.008C4.8 124.168 2.88 118.493 2.88 110.984C2.88 103.475 4.8 97.8 8.64 93.96C12.5227 90.12 18.2187 88.2 25.728 88.2ZM92.3725 133V117.128C92.3725 115.165 92.4365 113.16 92.5645 111.112C92.7352 109.021 92.9058 107.272 93.0765 105.864C93.2472 104.456 93.3538 103.56 93.3965 103.176H93.1405L85.0125 133H73.9405L65.7485 103.24H65.4925C65.5352 103.624 65.6418 104.52 65.8125 105.928C66.0258 107.293 66.2178 109.021 66.3885 111.112C66.5592 113.16 66.6445 115.165 66.6445 117.128V133H53.6525V88.968H73.6205L80.2765 114.376H80.5325L87.1245 88.968H106.389V133H92.3725ZM133.482 88.2C139.114 88.2 143.743 89.352 147.37 91.656C150.997 93.9173 152.853 97.288 152.938 101.768V102.536H139.69V102.28C139.69 101 139.221 99.9333 138.282 99.08C137.343 98.2267 135.914 97.8 133.994 97.8C132.117 97.8 130.666 98.0773 129.642 98.632C128.661 99.1867 128.17 99.8693 128.17 100.68C128.17 101.832 128.853 102.685 130.218 103.24C131.583 103.795 133.781 104.371 136.81 104.968C140.351 105.693 143.253 106.461 145.514 107.272C147.818 108.04 149.823 109.32 151.53 111.112C153.237 112.904 154.111 115.336 154.154 118.408C154.154 123.613 152.383 127.475 148.842 129.992C145.343 132.509 140.65 133.768 134.762 133.768C127.893 133.768 122.538 132.616 118.698 130.312C114.901 128.008 113.002 123.933 113.002 118.088H126.378C126.378 120.307 126.954 121.8 128.106 122.568C129.258 123.293 131.05 123.656 133.482 123.656C135.274 123.656 136.746 123.464 137.898 123.08C139.093 122.696 139.69 121.907 139.69 120.712C139.69 119.645 139.029 118.856 137.706 118.344C136.426 117.789 134.314 117.213 131.37 116.616C127.786 115.848 124.821 115.059 122.474 114.248C120.127 113.395 118.079 112.008 116.33 110.088C114.581 108.168 113.706 105.565 113.706 102.28C113.706 97.4587 115.562 93.9173 119.274 91.656C123.029 89.352 127.765 88.2 133.482 88.2Z" fill="url(#paint0_linear_1_10)"/>
<path d="M207.576 92.208C208.472 92.336 209.08 92.608 209.4 93.024C209.752 93.44 209.928 93.984 209.928 94.656C209.928 96.864 208.744 97.888 206.376 97.728L204.696 97.584C202.808 97.424 200.92 97.296 199.032 97.2C197.176 97.104 195.224 97.056 193.176 97.056H191.016C190.632 101.792 190.232 106.112 189.816 110.016L198.072 109.872C199.256 109.872 200.04 110.08 200.424 110.496C200.84 110.912 201.048 111.472 201.048 112.176C201.048 113.264 200.728 114.128 200.088 114.768C199.448 115.376 198.536 115.68 197.352 115.68H189.144L188.856 117.744C188.184 123.024 186.744 126.784 184.536 129.024C182.36 131.264 179.352 132.384 175.512 132.384C173.336 132.384 171.336 131.92 169.512 130.992C167.688 130.032 166.344 128.88 165.48 127.536C165.128 126.992 164.952 126.336 164.952 125.568C164.952 124.8 165.128 124.128 165.48 123.552C165.864 122.976 166.328 122.688 166.872 122.688C167.256 122.688 167.624 122.816 167.976 123.072C168.36 123.328 168.84 123.824 169.416 124.56C170.952 126.576 172.856 127.584 175.128 127.584C176.952 127.584 178.472 126.848 179.688 125.376C180.936 123.872 181.736 121.52 182.088 118.32L182.376 115.68H180.072C179.336 115.68 178.696 115.472 178.152 115.056C177.64 114.64 177.384 114.048 177.384 113.28C177.384 112.288 177.64 111.536 178.152 111.024C178.664 110.48 179.416 110.208 180.408 110.208C181.304 110.208 182.184 110.192 183.048 110.16C183.432 106.64 183.848 102.368 184.296 97.344C180.84 97.664 178.408 98.224 177 99.024C175.592 99.824 174.888 101.008 174.888 102.576C174.888 103.664 175.208 104.704 175.848 105.696C176.04 105.984 176.136 106.272 176.136 106.56C176.136 107.136 175.816 107.648 175.176 108.096C174.536 108.512 173.816 108.72 173.016 108.72C172.152 108.72 171.416 108.464 170.808 107.952C170.424 107.632 170.056 106.976 169.704 105.984C169.352 104.992 169.176 103.888 169.176 102.672C169.176 98.704 171.208 95.824 175.272 94.032C179.368 92.24 185.336 91.344 193.176 91.344C198.616 91.344 203.416 91.632 207.576 92.208ZM207.764 106.464C206.42 106.464 205.412 106.16 204.74 105.552C204.068 104.912 203.732 104.032 203.732 102.912C203.732 101.792 204.164 100.864 205.028 100.128C205.924 99.36 207.028 98.976 208.34 98.976C209.524 98.976 210.484 99.264 211.22 99.84C211.956 100.416 212.324 101.232 212.324 102.288C212.324 103.568 211.908 104.592 211.076 105.36C210.244 106.096 209.14 106.464 207.764 106.464ZM207.38 132.24C205.3 132.24 203.78 131.504 202.82 130.032C201.892 128.56 201.428 126.608 201.428 124.176C201.428 122.736 201.604 120.896 201.956 118.656C202.34 116.384 202.82 114.272 203.396 112.32C203.684 111.296 204.068 110.592 204.548 110.208C205.028 109.824 205.796 109.632 206.852 109.632C208.484 109.632 209.3 110.176 209.3 111.264C209.3 112.064 208.996 113.92 208.388 116.832C207.62 120.352 207.236 122.736 207.236 123.984C207.236 124.944 207.364 125.68 207.62 126.192C207.876 126.704 208.308 126.96 208.916 126.96C209.492 126.96 210.212 126.56 211.076 125.76C211.94 124.96 213.092 123.696 214.532 121.968C214.916 121.52 215.348 121.296 215.828 121.296C216.244 121.296 216.564 121.488 216.788 121.872C217.044 122.256 217.172 122.784 217.172 123.456C217.172 124.736 216.868 125.728 216.26 126.432C213.092 130.304 210.132 132.24 207.38 132.24ZM216.696 132.24C215.48 132.24 214.616 131.6 214.104 130.32C213.624 129.04 213.384 126.992 213.384 124.176C213.384 120.016 213.976 116.064 215.16 112.32C215.448 111.392 215.912 110.72 216.552 110.304C217.224 109.856 218.152 109.632 219.336 109.632C219.976 109.632 220.424 109.712 220.68 109.872C220.936 110.032 221.064 110.336 221.064 110.784C221.064 111.296 220.824 112.448 220.344 114.24C220.024 115.52 219.768 116.64 219.576 117.6C219.384 118.56 219.224 119.744 219.096 121.152C220.152 118.4 221.336 116.16 222.648 114.432C223.96 112.704 225.24 111.472 226.488 110.736C227.768 110 228.936 109.632 229.992 109.632C232.072 109.632 233.112 110.672 233.112 112.752C233.112 114 232.76 116.256 232.056 119.52C231.448 122.304 231.144 124.144 231.144 125.04C231.144 126.32 231.608 126.96 232.536 126.96C233.176 126.96 233.928 126.576 234.792 125.808C235.688 125.008 236.872 123.728 238.344 121.968C238.728 121.52 239.16 121.296 239.64 121.296C240.056 121.296 240.376 121.488 240.6 121.872C240.856 122.256 240.984 122.784 240.984 123.456C240.984 124.736 240.68 125.728 240.072 126.432C238.696 128.128 237.208 129.52 235.608 130.608C234.04 131.696 232.248 132.24 230.232 132.24C228.6 132.24 227.368 131.776 226.536 130.848C225.704 129.888 225.288 128.512 225.288 126.72C225.288 125.824 225.512 124.224 225.96 121.92C226.376 119.904 226.584 118.512 226.584 117.744C226.584 117.232 226.408 116.976 226.056 116.976C225.64 116.976 225.048 117.52 224.28 118.608C223.544 119.664 222.776 121.072 221.976 122.832C221.208 124.592 220.584 126.448 220.104 128.4C219.752 129.904 219.336 130.928 218.856 131.472C218.408 131.984 217.688 132.24 216.696 132.24ZM264.365 121.296C264.781 121.296 265.101 121.488 265.325 121.872C265.581 122.256 265.709 122.784 265.709 123.456C265.709 124.736 265.405 125.728 264.797 126.432C263.485 128.032 262.045 129.408 260.477 130.56C258.909 131.68 257.357 132.24 255.821 132.24C253.389 132.24 251.533 130.816 250.253 127.968C248.909 129.664 247.725 130.8 246.701 131.376C245.709 131.952 244.541 132.24 243.197 132.24C241.245 132.24 239.629 131.52 238.349 130.08C237.101 128.608 236.477 126.704 236.477 124.368C236.477 121.808 237.021 119.44 238.109 117.264C239.197 115.056 240.685 113.264 242.573 111.888C244.493 110.48 246.637 109.648 249.005 109.392C249.613 103.184 250.765 97.888 252.461 93.504C254.189 89.088 256.445 86.88 259.229 86.88C260.605 86.88 261.741 87.504 262.637 88.752C263.565 90 264.029 91.888 264.029 94.416C264.029 98 263.149 102.192 261.389 106.992C259.629 111.792 257.277 116.72 254.333 121.776C254.461 123.632 254.733 124.96 255.149 125.76C255.597 126.56 256.157 126.96 256.829 126.96C257.693 126.96 258.573 126.576 259.469 125.808C260.365 125.04 261.565 123.76 263.069 121.968C263.453 121.52 263.885 121.296 264.365 121.296ZM258.701 91.584C258.093 91.584 257.485 92.672 256.877 94.848C256.269 96.992 255.741 99.808 255.293 103.296C254.877 106.784 254.573 110.432 254.381 114.24C257.965 106.432 259.757 100.16 259.757 95.424C259.757 94.208 259.645 93.264 259.421 92.592C259.229 91.92 258.989 91.584 258.701 91.584ZM244.877 127.392C245.485 127.392 246.093 127.152 246.701 126.672C247.309 126.16 248.077 125.232 249.005 123.888C248.685 122.16 248.525 120.224 248.525 118.08C248.525 117.312 248.557 116.064 248.621 114.336C246.861 114.88 245.389 116.064 244.205 117.888C243.053 119.68 242.477 121.68 242.477 123.888C242.477 126.224 243.277 127.392 244.877 127.392ZM283.212 121.296C283.628 121.296 283.948 121.488 284.172 121.872C284.428 122.256 284.556 122.784 284.556 123.456C284.556 124.736 284.252 125.728 283.644 126.432C282.46 127.872 280.78 129.2 278.604 130.416C276.46 131.632 274.156 132.24 271.692 132.24C268.332 132.24 265.724 131.328 263.868 129.504C262.012 127.68 261.084 125.184 261.084 122.016C261.084 119.808 261.548 117.76 262.476 115.872C263.404 113.952 264.684 112.432 266.316 111.312C267.98 110.192 269.852 109.632 271.932 109.632C273.788 109.632 275.276 110.192 276.396 111.312C277.516 112.4 278.076 113.888 278.076 115.776C278.076 117.984 277.276 119.888 275.676 121.488C274.108 123.056 271.436 124.304 267.66 125.232C268.46 126.704 269.98 127.44 272.22 127.44C273.66 127.44 275.292 126.944 277.116 125.952C278.972 124.928 280.572 123.6 281.916 121.968C282.3 121.52 282.732 121.296 283.212 121.296ZM271.116 114.336C269.932 114.336 268.924 115.024 268.092 116.4C267.292 117.776 266.892 119.44 266.892 121.392V121.488C268.78 121.04 270.268 120.368 271.356 119.472C272.444 118.576 272.988 117.536 272.988 116.352C272.988 115.744 272.812 115.264 272.46 114.912C272.14 114.528 271.692 114.336 271.116 114.336ZM300.04 116.208C300.744 116.208 301.336 116.464 301.816 116.976C302.328 117.456 302.584 118.064 302.584 118.8C302.584 119.216 302.488 119.664 302.296 120.144C301.784 121.328 301.064 122.32 300.136 123.12C299.208 123.92 298.184 124.32 297.064 124.32C296.168 124.32 295.4 124 294.76 123.36C294.152 122.72 293.848 121.856 293.848 120.768C293.848 120.16 293.88 119.504 293.944 118.8C294.008 118.288 294.04 117.936 294.04 117.744C294.04 117.488 293.976 117.296 293.848 117.168C293.752 117.04 293.624 116.976 293.464 116.976C293.016 116.976 292.408 117.52 291.64 118.608C290.872 119.664 290.104 121.072 289.336 122.832C288.568 124.592 287.944 126.448 287.464 128.4C287.112 129.936 286.712 130.96 286.264 131.472C285.816 131.984 285.08 132.24 284.056 132.24C282.84 132.24 281.976 131.6 281.464 130.32C280.984 129.04 280.744 126.992 280.744 124.176C280.744 120.016 281.336 116.064 282.52 112.32C282.808 111.392 283.272 110.72 283.912 110.304C284.584 109.856 285.512 109.632 286.696 109.632C287.336 109.632 287.784 109.712 288.04 109.872C288.296 110.032 288.424 110.336 288.424 110.784C288.424 111.296 288.184 112.448 287.704 114.24C287.384 115.52 287.128 116.64 286.936 117.6C286.744 118.56 286.584 119.744 286.456 121.152C287.512 118.4 288.696 116.16 290.008 114.432C291.32 112.704 292.6 111.472 293.848 110.736C295.096 110 296.232 109.632 297.256 109.632C298.184 109.632 298.888 109.904 299.368 110.448C299.88 110.96 300.136 111.728 300.136 112.752C300.136 113.36 299.96 114.512 299.608 116.208H300.04Z" fill="black" fill-opacity="0.8"/>
<g clip-path="url(#clip0_1_10)">
<path d="M148.083 55.4167H130.583C129.036 55.4167 127.553 54.8021 126.459 53.7081C125.365 52.6142 124.75 51.1304 124.75 49.5833V17.5C124.75 15.9529 125.365 14.4692 126.459 13.3752C127.553 12.2812 129.036 11.6667 130.583 11.6667H142.25L151 20.4167H171.417C172.964 20.4167 174.447 21.0312 175.541 22.1252C176.635 23.2192 177.25 24.7029 177.25 26.25V33.5417" stroke="#2C3E50" stroke-width="3.75" stroke-linecap="round" stroke-linejoin="round"/>
<path d="M159.75 52.5C159.75 54.8206 160.672 57.0462 162.313 58.6872C163.954 60.3281 166.179 61.25 168.5 61.25C170.821 61.25 173.046 60.3281 174.687 58.6872C176.328 57.0462 177.25 54.8206 177.25 52.5C177.25 50.1794 176.328 47.9538 174.687 46.3128C173.046 44.6719 170.821 43.75 168.5 43.75C166.179 43.75 163.954 44.6719 162.313 46.3128C160.672 47.9538 159.75 50.1794 159.75 52.5Z" stroke="#2C3E50" stroke-width="3.75" stroke-linecap="round" stroke-linejoin="round"/>
<path d="M174.917 58.9167L180.167 64.1667" stroke="#2C3E50" stroke-width="3.75" stroke-linecap="round" stroke-linejoin="round"/>
</g>
<defs>
<linearGradient id="paint0_linear_1_10" x1="11.5906" y1="88.8182" x2="125.484" y2="151.953" gradientUnits="userSpaceOnUse">
<stop stop-color="#108DC7"/>
<stop offset="1" stop-color="#38EF8C"/>
</linearGradient>
<clipPath id="clip0_1_10">
<rect width="70" height="70" fill="white" transform="translate(116)"/>
</clipPath>
</defs>
</svg>
