<?xml version="1.0" encoding="UTF-8" standalone="no"?>
<!-- Created with Inkscape (http://www.inkscape.org/) -->

<svg
   xmlns:dc="http://purl.org/dc/elements/1.1/"
   xmlns:cc="http://creativecommons.org/ns#"
   xmlns:rdf="http://www.w3.org/1999/02/22-rdf-syntax-ns#"
   xmlns:svg="http://www.w3.org/2000/svg"
   xmlns="http://www.w3.org/2000/svg"
   xmlns:sodipodi="http://sodipodi.sourceforge.net/DTD/sodipodi-0.dtd"
   xmlns:inkscape="http://www.inkscape.org/namespaces/inkscape"
   version="1.1"
   id="svg2"
   xml:space="preserve"
   width="450.10956"
   height="158.18785"
   viewBox="0 0 450.10956 158.18785"
   sodipodi:docname="logo-new.svg"
   inkscape:version="0.92.5 (2060ec1f9f, 2020-04-08)"><metadata
     id="metadata8"><rdf:RDF><cc:Work
         rdf:about=""><dc:format>image/svg+xml</dc:format><dc:type
           rdf:resource="http://purl.org/dc/dcmitype/StillImage" /><dc:title></dc:title></cc:Work></rdf:RDF></metadata><defs
     id="defs6"><clipPath
       clipPathUnits="userSpaceOnUse"
       id="clipPath18"><path
         d="M 144.572,84.676 C 139.046,80.301 134.268,75.071 131.3,69.034 v 0 c -3.02,0.218 -5.914,0.408 -8.595,0.478 v 0 c -6.134,0.153 -16.596,-5.903 -5.997,-6.188 v 0 c 3.732,-0.096 7.847,-0.485 12.18,-0.951 v 0 c -0.7,-2.954 -0.963,-6.067 -0.693,-9.333 v 0 c 1.317,-15.743 18.032,-22.562 31.636,-22.01 v 0 c 16.259,0.681 26.546,9.537 36.004,22.21 v 0 c 6.067,8.138 16.086,14.35 26.015,17.605 v 0 c 7.189,2.359 14.935,3.07 22.261,4.96 v 0 c 9.471,2.436 7.232,12.456 -2.2,10.035 v 0 C 224.492,81.358 209.58,79.41 195.621,66.957 v 0 C 185.908,58.308 180.709,44.619 167.517,40.726 v 0 c -13.248,-3.91 -23.965,7.786 -23.641,20.115 v 0 c 15.617,-1.241 31.61,-0.588 41.503,10.409 v 0 c 6.768,7.532 3.329,20.524 -6.708,23.081 v 0 c -2.301,0.586 -4.648,0.856 -7.003,0.856 v 0 c -9.758,0 -19.666,-4.624 -27.096,-10.511 m 18.217,0.271 c 8.542,3.954 14.976,-9.378 7.323,-13.091 v 0 c -6.965,-3.371 -15.792,-3.95 -24.645,-3.686 v 0 c 3.127,7.441 10.433,13.578 17.322,16.777"
         id="path16"
         inkscape:connector-curvature="0" /></clipPath><linearGradient
       x1="0"
       y1="0"
       x2="1"
       y2="0"
       gradientUnits="userSpaceOnUse"
       gradientTransform="matrix(-379.08893,-99.28524,-99.28524,379.08893,386.87134,121.07648)"
       spreadMethod="pad"
       id="linearGradient30"><stop
         style="stop-opacity:1;stop-color:#0c8c98"
         offset="0"
         id="stop24" /><stop
         style="stop-opacity:1;stop-color:#254a9a"
         offset="0.25951984"
         id="stop26" /><stop
         style="stop-opacity:1;stop-color:#254a9a"
         offset="1"
         id="stop28" /></linearGradient><clipPath
       clipPathUnits="userSpaceOnUse"
       id="clipPath40"><path
         d="M 217.181,120.461 C 204.766,110.344 203.292,95.922 202.94,81.032 v 0 c -0.582,-24.574 0.628,-43.139 1.866,-67.666 v 0 c 0.143,-2.883 15.863,-0.238 15.63,4.188 v 0 c -1.313,26.061 -2.371,46.085 -1.759,72.177 v 0 c 0.284,11.909 2.482,21.233 10.763,30.058 v 0 c 9.5,10.116 10.891,-1.775 8.779,-9.775 v 0 c -0.915,-3.456 14.39,-1.25 15.442,2.715 v 0 c 3.526,13.434 -2.09,18.073 -10.247,18.073 v 0 c -8.465,0 -19.668,-4.996 -26.233,-10.341"
         id="path38"
         inkscape:connector-curvature="0" /></clipPath><linearGradient
       x1="0"
       y1="0"
       x2="1"
       y2="0"
       gradientUnits="userSpaceOnUse"
       gradientTransform="matrix(-379.0918,-99.285995,-99.285995,379.0918,388.65991,114.26119)"
       spreadMethod="pad"
       id="linearGradient52"><stop
         style="stop-opacity:1;stop-color:#0c8c98"
         offset="0"
         id="stop46" /><stop
         style="stop-opacity:1;stop-color:#254a9a"
         offset="0.25951984"
         id="stop48" /><stop
         style="stop-opacity:1;stop-color:#254a9a"
         offset="1"
         id="stop50" /></linearGradient><clipPath
       clipPathUnits="userSpaceOnUse"
       id="clipPath62"><path
         d="m 307.41,88.741 c -5.448,2.32 -11.09,3.781 -17.225,3.027 v 0 C 274.945,89.884 266.432,74.191 265.49,60.489 v 0 c -0.534,-7.799 11.817,-3.705 12.296,3.426 v 0 c 0.585,8.855 6.203,17.349 13.485,18.246 v 0 c 2.662,0.33 5.655,-0.565 8.674,-1.942 v 0 c -4.185,-6.257 -6.812,-13.664 -7.257,-21.537 v 0 C 292.03,47.065 299.61,35.023 310.905,31.935 v 0 c 12.843,-3.505 26.521,6.243 37.599,11.139 v 0 c 8.398,3.708 0.93,11.012 -5.961,7.968 v 0 c -9.578,-4.228 -23.079,-14.991 -31.805,-4.657 v 0 c -6.784,8.033 -5.043,19.418 -0.515,28.184 v 0 c 1.04,-0.579 2.029,-1.096 2.948,-1.508 v 0 c 10.338,-4.637 20.49,-9.942 31.993,-6.104 v 0 c 17.661,5.903 12.949,27.403 -3.537,30.967 v 0 c -2.759,0.596 -5.493,0.88 -8.171,0.88 v 0 c -9.829,0.001 -18.937,-3.822 -26.046,-10.063 m 32.383,-2.317 c 8.339,-5.478 1.683,-12.081 -6.205,-9.926 v 0 c -5.57,1.525 -10.861,4.391 -16.167,7.246 v 0 c 6.335,5.089 15.301,7.314 22.372,2.68"
         id="path60"
         inkscape:connector-curvature="0" /></clipPath><linearGradient
       x1="0"
       y1="0"
       x2="1"
       y2="0"
       gradientUnits="userSpaceOnUse"
       gradientTransform="matrix(-379.09851,-99.28775,-99.28775,379.09851,396.20999,85.435211)"
       spreadMethod="pad"
       id="linearGradient74"><stop
         style="stop-opacity:1;stop-color:#0c8c98"
         offset="0"
         id="stop68" /><stop
         style="stop-opacity:1;stop-color:#254a9a"
         offset="0.25951984"
         id="stop70" /><stop
         style="stop-opacity:1;stop-color:#254a9a"
         offset="1"
         id="stop72" /></linearGradient><clipPath
       clipPathUnits="userSpaceOnUse"
       id="clipPath84"><path
         d="m 243.058,101.848 c -2.113,-0.566 -4.256,-1.371 -6.067,-2.603 v 0 c -1.073,-0.736 -2.028,-1.539 -2.028,-2.917 v 0 -4.083 c 0,-1.187 2.576,-1.456 3.208,-1.501 v 0 c 2.191,-0.155 4.455,0.219 6.552,0.782 v 0 c 2.13,0.56 4.267,1.371 6.082,2.608 v 0 c 1.076,0.737 2.028,1.536 2.028,2.905 v 0 4.081 c 0,1.195 -2.577,1.463 -3.206,1.502 v 0 c -0.36,0.027 -0.721,0.04 -1.083,0.04 v 0 c -1.848,0 -3.712,-0.339 -5.486,-0.814"
         id="path82"
         inkscape:connector-curvature="0" /></clipPath><linearGradient
       x1="0"
       y1="0"
       x2="1"
       y2="0"
       gradientUnits="userSpaceOnUse"
       gradientTransform="matrix(-379.09592,-99.287071,-99.287071,379.09592,383.6748,133.29753)"
       spreadMethod="pad"
       id="linearGradient96"><stop
         style="stop-opacity:1;stop-color:#0c8c98"
         offset="0"
         id="stop90" /><stop
         style="stop-opacity:1;stop-color:#254a9a"
         offset="0.25951984"
         id="stop92" /><stop
         style="stop-opacity:1;stop-color:#254a9a"
         offset="1"
         id="stop94" /></linearGradient><clipPath
       clipPathUnits="userSpaceOnUse"
       id="clipPath106"><path
         d="m 266.804,90.1 c -4.302,-18.131 3.704,-53.226 -15.112,-64.194 v 0 c -5.687,-3.323 7.831,-1.792 10.249,-0.377 v 0 c 21.677,12.637 13.195,46.344 18.078,66.938 v 0 c 0.234,0.995 -1.133,1.422 -3.068,1.422 v 0 c -3.749,0 -9.634,-1.604 -10.147,-3.789"
         id="path104"
         inkscape:connector-curvature="0" /></clipPath><linearGradient
       x1="0"
       y1="0"
       x2="1"
       y2="0"
       gradientUnits="userSpaceOnUse"
       gradientTransform="matrix(-379.08157,-99.28331,-99.28331,379.08157,394.31973,92.635796)"
       spreadMethod="pad"
       id="linearGradient118"><stop
         style="stop-opacity:1;stop-color:#0c8c98"
         offset="0"
         id="stop112" /><stop
         style="stop-opacity:1;stop-color:#254a9a"
         offset="0.25951984"
         id="stop114" /><stop
         style="stop-opacity:1;stop-color:#254a9a"
         offset="1"
         id="stop116" /></linearGradient><clipPath
       clipPathUnits="userSpaceOnUse"
       id="clipPath128"><path
         d="M 236.31,79.927 C 234.516,63.579 228.778,42.436 236.2,26.858 v 0 c 1.553,-3.292 14.453,1.356 13.395,3.59 v 0 c -7.422,15.576 -3.626,31.88 0.488,50.402 v 0 c 0.197,0.884 -3.435,1.694 -7.02,1.694 v 0 c -3.29,0 -6.54,-0.682 -6.753,-2.617"
         id="path126"
         inkscape:connector-curvature="0" /></clipPath><linearGradient
       x1="0"
       y1="0"
       x2="1"
       y2="0"
       gradientUnits="userSpaceOnUse"
       gradientTransform="matrix(-379.09695,-99.287338,-99.287338,379.09695,393.9003,94.257462)"
       spreadMethod="pad"
       id="linearGradient140"><stop
         style="stop-opacity:1;stop-color:#0c8c98"
         offset="0"
         id="stop134" /><stop
         style="stop-opacity:1;stop-color:#254a9a"
         offset="0.25951984"
         id="stop136" /><stop
         style="stop-opacity:1;stop-color:#254a9a"
         offset="1"
         id="stop138" /></linearGradient><clipPath
       clipPathUnits="userSpaceOnUse"
       id="clipPath150"><path
         d="m 18.803,64.158 c 0,-4.293 3.49,-8.029 7.821,-8.029 v 0 c 4.334,0 7.331,3.266 7.331,7.514 v 0 0.618 h -6.141 v -1.767 h 4.005 c -0.08,-2.523 -2.672,-4.597 -5.072,-4.597 v 0 c -3.345,0 -6.014,3.078 -6.014,6.322 v 0 c 0,3.471 2.708,6.285 6.179,6.285 v 0 c 1.889,0 3.761,-1.008 4.865,-2.527 v 0 l 1.355,1.293 c -1.516,1.91 -3.902,2.997 -6.302,2.997 v 0 c -4.458,0 -8.027,-3.653 -8.027,-8.109"
         id="path148"
         inkscape:connector-curvature="0" /></clipPath><linearGradient
       x1="0"
       y1="0"
       x2="1"
       y2="0"
       gradientUnits="userSpaceOnUse"
       gradientTransform="matrix(-379.03949,-99.272293,-99.272293,379.03949,377.64844,156.10428)"
       spreadMethod="pad"
       id="linearGradient162"><stop
         style="stop-opacity:1;stop-color:#0c8c98"
         offset="0"
         id="stop156" /><stop
         style="stop-opacity:1;stop-color:#254a9a"
         offset="0.25951984"
         id="stop158" /><stop
         style="stop-opacity:1;stop-color:#254a9a"
         offset="1"
         id="stop160" /></linearGradient><clipPath
       clipPathUnits="userSpaceOnUse"
       id="clipPath172"><path
         d="M 35.867,71.94 V 56.458 h 1.931 v 6.55 h 0.798 l 4.564,-6.55 h 2.339 l -4.886,6.735 c 2.236,0.269 3.713,2.114 3.713,4.333 v 0 c 0,1.476 -0.736,2.938 -2.03,3.695 v 0 c -1.233,0.7 -2.712,0.719 -4.086,0.719 v 0 z m 1.931,-1.724 h 0.518 c 1.906,0 4.206,-0.346 4.206,-2.771 v 0 c 0,-2.466 -2.136,-2.835 -4.104,-2.835 v 0 h -0.62 z"
         id="path170"
         inkscape:connector-curvature="0" /></clipPath><linearGradient
       x1="0"
       y1="0"
       x2="1"
       y2="0"
       gradientUnits="userSpaceOnUse"
       gradientTransform="matrix(-379.13132,-99.296341,-99.296341,379.13132,378.62582,152.70755)"
       spreadMethod="pad"
       id="linearGradient184"><stop
         style="stop-opacity:1;stop-color:#0c8c98"
         offset="0"
         id="stop178" /><stop
         style="stop-opacity:1;stop-color:#254a9a"
         offset="0.25951984"
         id="stop180" /><stop
         style="stop-opacity:1;stop-color:#254a9a"
         offset="1"
         id="stop182" /></linearGradient><clipPath
       clipPathUnits="userSpaceOnUse"
       id="clipPath194"><path
         d="m 45.933,64.199 c 0,-4.599 3.635,-8.07 8.113,-8.07 v 0 c 4.475,0 8.108,3.471 8.108,8.07 v 0 c 0,4.435 -3.675,8.068 -8.108,8.068 v 0 c -4.436,0 -8.113,-3.633 -8.113,-8.068 m 1.93,0 c 0,3.41 2.546,6.265 6.183,6.265 v 0 c 3.635,0 6.178,-2.855 6.178,-6.265 v 0 c 0,-3.532 -2.835,-6.264 -6.178,-6.264 v 0 c -3.347,0 -6.183,2.732 -6.183,6.264"
         id="path192"
         inkscape:connector-curvature="0" /></clipPath><linearGradient
       x1="0"
       y1="0"
       x2="1"
       y2="0"
       gradientUnits="userSpaceOnUse"
       gradientTransform="matrix(-379.04602,-99.274002,-99.274002,379.04602,379.41135,149.40607)"
       spreadMethod="pad"
       id="linearGradient206"><stop
         style="stop-opacity:1;stop-color:#0c8c98"
         offset="0"
         id="stop200" /><stop
         style="stop-opacity:1;stop-color:#254a9a"
         offset="0.25951984"
         id="stop202" /><stop
         style="stop-opacity:1;stop-color:#254a9a"
         offset="1"
         id="stop204" /></linearGradient><clipPath
       clipPathUnits="userSpaceOnUse"
       id="clipPath216"><path
         d="m 73.168,71.94 v -9.138 c 0,-2.525 -0.762,-4.867 -3.74,-4.867 v 0 c -2.976,0 -3.738,2.342 -3.738,4.867 v 0 9.138 h -1.931 v -9.793 c 0,-3.41 2.115,-6.018 5.669,-6.018 v 0 c 3.555,0 5.667,2.608 5.667,6.018 v 0 9.793 z"
         id="path214"
         inkscape:connector-curvature="0" /></clipPath><linearGradient
       x1="0"
       y1="0"
       x2="1"
       y2="0"
       gradientUnits="userSpaceOnUse"
       gradientTransform="matrix(-379.08597,-99.284462,-99.284462,379.08597,380.31705,146.08826)"
       spreadMethod="pad"
       id="linearGradient228"><stop
         style="stop-opacity:1;stop-color:#0c8c98"
         offset="0"
         id="stop222" /><stop
         style="stop-opacity:1;stop-color:#254a9a"
         offset="0.25951984"
         id="stop224" /><stop
         style="stop-opacity:1;stop-color:#254a9a"
         offset="1"
         id="stop226" /></linearGradient><clipPath
       clipPathUnits="userSpaceOnUse"
       id="clipPath238"><path
         d="M 77.56,71.94 V 56.458 h 1.931 v 6.487 H 80.6 c 2.934,0 5.419,1.254 5.419,4.52 v 0 c 0,2.833 -1.475,4.475 -6.24,4.475 v 0 z m 1.931,-1.724 h 0.514 c 1.906,0 4.21,-0.288 4.21,-2.711 v 0 c 0,-2.464 -2.136,-2.833 -4.104,-2.833 v 0 h -0.62 z"
         id="path236"
         inkscape:connector-curvature="0" /></clipPath><linearGradient
       x1="0"
       y1="0"
       x2="1"
       y2="0"
       gradientUnits="userSpaceOnUse"
       gradientTransform="matrix(-379.1337,-99.296967,-99.296967,379.1337,381.05435,143.43251)"
       spreadMethod="pad"
       id="linearGradient250"><stop
         style="stop-opacity:1;stop-color:#0c8c98"
         offset="0"
         id="stop244" /><stop
         style="stop-opacity:1;stop-color:#254a9a"
         offset="0.25951984"
         id="stop246" /><stop
         style="stop-opacity:1;stop-color:#254a9a"
         offset="1"
         id="stop248" /></linearGradient><clipPath
       clipPathUnits="userSpaceOnUse"
       id="clipPath260"><path
         d="M 87.935,71.94 V 56.458 h 8.318 v 1.767 h -6.388 v 5.851 h 6.203 v 1.765 h -6.203 v 4.335 h 6.388 v 1.764 z"
         id="path258"
         inkscape:connector-curvature="0" /></clipPath><linearGradient
       x1="0"
       y1="0"
       x2="1"
       y2="0"
       gradientUnits="userSpaceOnUse"
       gradientTransform="matrix(-379.02936,-99.269646,-99.269646,379.02936,381.84464,140.08588)"
       spreadMethod="pad"
       id="linearGradient272"><stop
         style="stop-opacity:1;stop-color:#0c8c98"
         offset="0"
         id="stop266" /><stop
         style="stop-opacity:1;stop-color:#254a9a"
         offset="0.25951984"
         id="stop268" /><stop
         style="stop-opacity:1;stop-color:#254a9a"
         offset="1"
         id="stop270" /></linearGradient></defs><sodipodi:namedview
     pagecolor="#ffffff"
     bordercolor="#666666"
     borderopacity="1"
     objecttolerance="10"
     gridtolerance="10"
     guidetolerance="10"
     inkscape:pageopacity="0"
     inkscape:pageshadow="2"
     inkscape:window-width="1513"
     inkscape:window-height="770"
     id="namedview4"
     showgrid="false"
     fit-margin-top="0"
     fit-margin-left="0"
     fit-margin-right="0"
     fit-margin-bottom="0"
     inkscape:zoom="0.74199801"
     inkscape:cx="224.93001"
     inkscape:cy="79.133857"
     inkscape:window-x="0"
     inkscape:window-y="0"
     inkscape:window-maximized="0"
     inkscape:current-layer="g10" /><g
     id="g10"
     inkscape:groupmode="layer"
     inkscape:label="Logo Groupe Efire_CMJN"
     transform="matrix(1.3333333,0,0,-1.3333333,-25.070666,174.40266)"><g
       id="g12"><g
         id="g14"
         clip-path="url(#clipPath18)"><g
           id="g20"><g
             id="g22"><path
               d="M 144.572,84.676 C 139.046,80.301 134.268,75.071 131.3,69.034 v 0 c -3.02,0.218 -5.914,0.408 -8.595,0.478 v 0 c -6.134,0.153 -16.596,-5.903 -5.997,-6.188 v 0 c 3.732,-0.096 7.847,-0.485 12.18,-0.951 v 0 c -0.7,-2.954 -0.963,-6.067 -0.693,-9.333 v 0 c 1.317,-15.743 18.032,-22.562 31.636,-22.01 v 0 c 16.259,0.681 26.546,9.537 36.004,22.21 v 0 c 6.067,8.138 16.086,14.35 26.015,17.605 v 0 c 7.189,2.359 14.935,3.07 22.261,4.96 v 0 c 9.471,2.436 7.232,12.456 -2.2,10.035 v 0 C 224.492,81.358 209.58,79.41 195.621,66.957 v 0 C 185.908,58.308 180.709,44.619 167.517,40.726 v 0 c -13.248,-3.91 -23.965,7.786 -23.641,20.115 v 0 c 15.617,-1.241 31.61,-0.588 41.503,10.409 v 0 c 6.768,7.532 3.329,20.524 -6.708,23.081 v 0 c -2.301,0.586 -4.648,0.856 -7.003,0.856 v 0 c -9.758,0 -19.666,-4.624 -27.096,-10.511 m 18.217,0.271 c 8.542,3.954 14.976,-9.378 7.323,-13.091 v 0 c -6.965,-3.371 -15.792,-3.95 -24.645,-3.686 v 0 c 3.127,7.441 10.433,13.578 17.322,16.777"
               style="fill:url(#linearGradient30);stroke:none"
               id="path32"
               inkscape:connector-curvature="0" /></g></g></g></g><g
       id="g34"><g
         id="g36"
         clip-path="url(#clipPath40)"><g
           id="g42"><g
             id="g44"><path
               d="M 217.181,120.461 C 204.766,110.344 203.292,95.922 202.94,81.032 v 0 c -0.582,-24.574 0.628,-43.139 1.866,-67.666 v 0 c 0.143,-2.883 15.863,-0.238 15.63,4.188 v 0 c -1.313,26.061 -2.371,46.085 -1.759,72.177 v 0 c 0.284,11.909 2.482,21.233 10.763,30.058 v 0 c 9.5,10.116 10.891,-1.775 8.779,-9.775 v 0 c -0.915,-3.456 14.39,-1.25 15.442,2.715 v 0 c 3.526,13.434 -2.09,18.073 -10.247,18.073 v 0 c -8.465,0 -19.668,-4.996 -26.233,-10.341"
               style="fill:url(#linearGradient52);stroke:none"
               id="path54"
               inkscape:connector-curvature="0" /></g></g></g></g><g
       id="g56"><g
         id="g58"
         clip-path="url(#clipPath62)"><g
           id="g64"><g
             id="g66"><path
               d="m 307.41,88.741 c -5.448,2.32 -11.09,3.781 -17.225,3.027 v 0 C 274.945,89.884 266.432,74.191 265.49,60.489 v 0 c -0.534,-7.799 11.817,-3.705 12.296,3.426 v 0 c 0.585,8.855 6.203,17.349 13.485,18.246 v 0 c 2.662,0.33 5.655,-0.565 8.674,-1.942 v 0 c -4.185,-6.257 -6.812,-13.664 -7.257,-21.537 v 0 C 292.03,47.065 299.61,35.023 310.905,31.935 v 0 c 12.843,-3.505 26.521,6.243 37.599,11.139 v 0 c 8.398,3.708 0.93,11.012 -5.961,7.968 v 0 c -9.578,-4.228 -23.079,-14.991 -31.805,-4.657 v 0 c -6.784,8.033 -5.043,19.418 -0.515,28.184 v 0 c 1.04,-0.579 2.029,-1.096 2.948,-1.508 v 0 c 10.338,-4.637 20.49,-9.942 31.993,-6.104 v 0 c 17.661,5.903 12.949,27.403 -3.537,30.967 v 0 c -2.759,0.596 -5.493,0.88 -8.171,0.88 v 0 c -9.829,0.001 -18.937,-3.822 -26.046,-10.063 m 32.383,-2.317 c 8.339,-5.478 1.683,-12.081 -6.205,-9.926 v 0 c -5.57,1.525 -10.861,4.391 -16.167,7.246 v 0 c 6.335,5.089 15.301,7.314 22.372,2.68"
               style="fill:url(#linearGradient74);stroke:none"
               id="path76"
               inkscape:connector-curvature="0" /></g></g></g></g><g
       id="g78"><g
         id="g80"
         clip-path="url(#clipPath84)"><g
           id="g86"><g
             id="g88"><path
               d="m 243.058,101.848 c -2.113,-0.566 -4.256,-1.371 -6.067,-2.603 v 0 c -1.073,-0.736 -2.028,-1.539 -2.028,-2.917 v 0 -4.083 c 0,-1.187 2.576,-1.456 3.208,-1.501 v 0 c 2.191,-0.155 4.455,0.219 6.552,0.782 v 0 c 2.13,0.56 4.267,1.371 6.082,2.608 v 0 c 1.076,0.737 2.028,1.536 2.028,2.905 v 0 4.081 c 0,1.195 -2.577,1.463 -3.206,1.502 v 0 c -0.36,0.027 -0.721,0.04 -1.083,0.04 v 0 c -1.848,0 -3.712,-0.339 -5.486,-0.814"
               style="fill:url(#linearGradient96);stroke:none"
               id="path98"
               inkscape:connector-curvature="0" /></g></g></g></g><g
       id="g100"><g
         id="g102"
         clip-path="url(#clipPath106)"><g
           id="g108"><g
             id="g110"><path
               d="m 266.804,90.1 c -4.302,-18.131 3.704,-53.226 -15.112,-64.194 v 0 c -5.687,-3.323 7.831,-1.792 10.249,-0.377 v 0 c 21.677,12.637 13.195,46.344 18.078,66.938 v 0 c 0.234,0.995 -1.133,1.422 -3.068,1.422 v 0 c -3.749,0 -9.634,-1.604 -10.147,-3.789"
               style="fill:url(#linearGradient118);stroke:none"
               id="path120"
               inkscape:connector-curvature="0" /></g></g></g></g><g
       id="g122"><g
         id="g124"
         clip-path="url(#clipPath128)"><g
           id="g130"><g
             id="g132"><path
               d="M 236.31,79.927 C 234.516,63.579 228.778,42.436 236.2,26.858 v 0 c 1.553,-3.292 14.453,1.356 13.395,3.59 v 0 c -7.422,15.576 -3.626,31.88 0.488,50.402 v 0 c 0.197,0.884 -3.435,1.694 -7.02,1.694 v 0 c -3.29,0 -6.54,-0.682 -6.753,-2.617"
               style="fill:url(#linearGradient140);stroke:none"
               id="path142"
               inkscape:connector-curvature="0" /></g></g></g></g><g
       id="g144"><g
         id="g146"
         clip-path="url(#clipPath150)"><g
           id="g152"><g
             id="g154"><path
               d="m 18.803,64.158 c 0,-4.293 3.49,-8.029 7.821,-8.029 v 0 c 4.334,0 7.331,3.266 7.331,7.514 v 0 0.618 h -6.141 v -1.767 h 4.005 c -0.08,-2.523 -2.672,-4.597 -5.072,-4.597 v 0 c -3.345,0 -6.014,3.078 -6.014,6.322 v 0 c 0,3.471 2.708,6.285 6.179,6.285 v 0 c 1.889,0 3.761,-1.008 4.865,-2.527 v 0 l 1.355,1.293 c -1.516,1.91 -3.902,2.997 -6.302,2.997 v 0 c -4.458,0 -8.027,-3.653 -8.027,-8.109"
               style="fill:url(#linearGradient162);stroke:none"
               id="path164"
               inkscape:connector-curvature="0" /></g></g></g></g><g
       id="g166"><g
         id="g168"
         clip-path="url(#clipPath172)"><g
           id="g174"><g
             id="g176"><path
               d="M 35.867,71.94 V 56.458 h 1.931 v 6.55 h 0.798 l 4.564,-6.55 h 2.339 l -4.886,6.735 c 2.236,0.269 3.713,2.114 3.713,4.333 v 0 c 0,1.476 -0.736,2.938 -2.03,3.695 v 0 c -1.233,0.7 -2.712,0.719 -4.086,0.719 v 0 z m 1.931,-1.724 h 0.518 c 1.906,0 4.206,-0.346 4.206,-2.771 v 0 c 0,-2.466 -2.136,-2.835 -4.104,-2.835 v 0 h -0.62 z"
               style="fill:url(#linearGradient184);stroke:none"
               id="path186"
               inkscape:connector-curvature="0" /></g></g></g></g><g
       id="g188"><g
         id="g190"
         clip-path="url(#clipPath194)"><g
           id="g196"><g
             id="g198"><path
               d="m 45.933,64.199 c 0,-4.599 3.635,-8.07 8.113,-8.07 v 0 c 4.475,0 8.108,3.471 8.108,8.07 v 0 c 0,4.435 -3.675,8.068 -8.108,8.068 v 0 c -4.436,0 -8.113,-3.633 -8.113,-8.068 m 1.93,0 c 0,3.41 2.546,6.265 6.183,6.265 v 0 c 3.635,0 6.178,-2.855 6.178,-6.265 v 0 c 0,-3.532 -2.835,-6.264 -6.178,-6.264 v 0 c -3.347,0 -6.183,2.732 -6.183,6.264"
               style="fill:url(#linearGradient206);stroke:none"
               id="path208"
               inkscape:connector-curvature="0" /></g></g></g></g><g
       id="g210"><g
         id="g212"
         clip-path="url(#clipPath216)"><g
           id="g218"><g
             id="g220"><path
               d="m 73.168,71.94 v -9.138 c 0,-2.525 -0.762,-4.867 -3.74,-4.867 v 0 c -2.976,0 -3.738,2.342 -3.738,4.867 v 0 9.138 h -1.931 v -9.793 c 0,-3.41 2.115,-6.018 5.669,-6.018 v 0 c 3.555,0 5.667,2.608 5.667,6.018 v 0 9.793 z"
               style="fill:url(#linearGradient228);stroke:none"
               id="path230"
               inkscape:connector-curvature="0" /></g></g></g></g><g
       id="g232"><g
         id="g234"
         clip-path="url(#clipPath238)"><g
           id="g240"><g
             id="g242"><path
               d="M 77.56,71.94 V 56.458 h 1.931 v 6.487 H 80.6 c 2.934,0 5.419,1.254 5.419,4.52 v 0 c 0,2.833 -1.475,4.475 -6.24,4.475 v 0 z m 1.931,-1.724 h 0.514 c 1.906,0 4.21,-0.288 4.21,-2.711 v 0 c 0,-2.464 -2.136,-2.833 -4.104,-2.833 v 0 h -0.62 z"
               style="fill:url(#linearGradient250);stroke:none"
               id="path252"
               inkscape:connector-curvature="0" /></g></g></g></g><g
       id="g254"><g
         id="g256"
         clip-path="url(#clipPath260)"><g
           id="g262"><g
             id="g264"><path
               d="M 87.935,71.94 V 56.458 h 8.318 v 1.767 h -6.388 v 5.851 h 6.203 v 1.765 h -6.203 v 4.335 h 6.388 v 1.764 z"
               style="fill:url(#linearGradient272);stroke:none"
               id="path274"
               inkscape:connector-curvature="0" /></g></g></g></g></g></svg>